M48
; DRILL file KiCad 10.0.3 date 2026-06-11T15:17:09
; FORMAT={-:-/ absolute / metric / decimal}
; #@! TF.CreationDate,2026-06-11T15:17:09-03:00
; #@! TF.GenerationSoftware,Kicad,Pcbnew,10.0.3
; #@! TF.FileFunction,MixedPlating,1,2
FMAT,2
METRIC
; #@! TA.AperFunction,Plated,PTH,ComponentDrill
T1C0.750
; #@! TA.AperFunction,Plated,PTH,ComponentDrill
T2C0.800
; #@! TA.AperFunction,Plated,PTH,ComponentDrill
T3C0.900
; #@! TA.AperFunction,Plated,PTH,ComponentDrill
T4C1.000
; #@! TA.AperFunction,NonPlated,NPTH,ComponentDrill
T5C3.200
%
G90
G05
T1
X76.95Y-108.05
X81.95Y-108.05
X92.75Y-105.5
X92.75Y-114.75
X97.75Y-105.5
X97.75Y-114.75
X122.0Y-107.25
X127.0Y-107.25
T2
X70.0Y-93.0
X70.0Y-100.62
X77.25Y-93.0
X77.25Y-100.62
X84.5Y-93.0
X84.5Y-100.62
X84.54Y-80.85
X91.38Y-93.0
X91.38Y-95.54
X91.38Y-98.08
X91.38Y-100.62
X92.16Y-80.85
X94.0Y-88.75
X95.25Y-129.0
X96.5Y-88.75
X97.25Y-129.0
X99.0Y-93.0
X99.0Y-95.54
X99.0Y-98.08
X99.0Y-100.62
X101.25Y-74.455
X101.25Y-76.455
X103.75Y-107.19
X103.75Y-114.81
X105.5Y-92.94
X105.5Y-100.56
X108.5Y-76.455
X108.5Y-84.075
X110.0Y-107.19
X110.0Y-114.81
X110.0Y-119.8
X112.75Y-92.94
X112.75Y-100.56
X115.0Y-76.395
X115.0Y-84.015
X116.0Y-107.19
X116.0Y-114.81
X117.62Y-119.8
X119.75Y-92.94
X119.75Y-100.56
X122.65Y-85.455
X122.65Y-87.455
T3
X69.61Y-83.9
X72.15Y-83.9
T4
X70.0Y-105.485
X70.0Y-108.025
X77.25Y-84.05
X77.25Y-88.2
X79.95Y-73.96
X79.95Y-76.5
X88.25Y-88.5
X88.25Y-105.5
X88.25Y-110.45
X89.45Y-73.975
X89.45Y-76.515
X92.67Y-120.5
X95.21Y-120.5
X96.05Y-80.8
X97.75Y-120.5
X101.25Y-80.8
X101.35Y-87.85
X105.5Y-104.0
X108.3Y-124.05
X108.325Y-129.0
X110.865Y-129.0
X116.8Y-129.05
X123.15Y-119.85
X123.2Y-113.6
X126.25Y-94.25
X126.25Y-96.79
X126.25Y-99.33
T5
X72.475Y-76.15
X72.5Y-127.8
X124.75Y-76.1
X124.8Y-127.8
M30
